<?xml version="1.0"?>
<svg xmlns="http://www.w3.org/2000/svg" xmlns:xlink="http://www.w3.org/1999/xlink" version="1.1" id="Capa_1" x="0px" y="0px" viewBox="0 0 612 612" style="enable-background:new 0 0 612 612;" xml:space="preserve" width="512px" height="512px"><g><g>
	<g>
		<path d="M490.824,301.104c0-4.08-1.632-7.14-4.896-9.18L320.076,173.808    c-4.08-2.448-8.16-2.856-12.24-1.224c-4.08,2.856-6.12,6.324-6.12,10.404v55.692H152.388c-3.264,0-5.916,1.122-7.956,3.366    s-3.06,4.998-3.06,8.262v102.816c0,3.264,1.02,5.916,3.06,7.956s4.692,3.06,7.956,3.06h149.328v55.692    c0,4.896,2.04,8.364,6.12,10.404c4.08,1.632,8.16,1.224,12.24-1.227l165.852-118.728    C489.192,308.244,490.824,305.184,490.824,301.104z M306,0c42.024,0,81.702,8.058,119.034,24.174s69.768,37.944,97.308,65.484    s49.368,59.976,65.484,97.308S612,263.976,612,306c0,28.152-3.672,55.284-11.016,81.396    c-7.347,26.109-17.646,50.487-30.906,73.134c-13.26,22.644-29.172,43.248-47.736,61.812    c-18.562,18.564-39.168,34.479-61.812,47.736c-22.646,13.26-47.022,23.562-73.136,30.906C361.284,608.328,334.152,612,306,612    s-55.284-3.672-81.396-11.016c-26.112-7.347-50.49-17.646-73.134-30.906s-43.248-29.172-61.812-47.736    c-18.564-18.562-34.476-39.168-47.736-61.812c-13.26-22.646-23.562-47.022-30.906-73.135C3.672,361.284,0,334.152,0,306    s3.672-55.284,11.016-81.396s17.646-50.49,30.906-73.134s29.172-43.248,47.736-61.812s39.168-34.476,61.812-47.736    s47.022-23.562,73.134-30.906S277.848,0,306,0z" data-original="#010002" class="active-path" data-old_color="#010002" fill="#BBBBBB"/>
	</g>
</g></g> </svg>
