<svg width="141.732" height="141.732" xmlns="http://www.w3.org/2000/svg">

 <g>
  <title>background</title>
  <rect fill="none" id="canvas_background" height="402" width="582" y="-1" x="-1"/>
 </g>
 <g>
  <title>Layer 1</title>
  <path fill="#ffffff" id="svg_1" d="m105.613998,118.681c3.398003,3.396004 3.400002,8.912003 0,12.311005c-3.395996,3.399002 -8.909996,3.397995 -12.310997,0c-0.020004,-0.020004 -0.035004,-0.040009 -0.053001,-0.061005l-0.025002,0.022003l-57.66,-57.660004l0.024002,-0.021996c-1.610001,-1.579002 -2.608002,-3.775002 -2.608002,-6.208c-0.001999,-2.730003 1.257999,-5.166004 3.229,-6.762005l-0.059998,-0.057999l57.659996,-57.66l0.025002,0.024c0.017998,-0.021 0.032997,-0.039 0.053001,-0.058c3.400002,-3.4 8.912003,-3.4 12.311996,0c3.398003,3.396 3.398003,8.908 0,12.311c-0.020996,0.02 -0.041,0.034 -0.060997,0.054l0.023003,0.024l-52.119003,52.125004l51.540001,51.539993l-0.025002,0.021004c0.014999,0.022003 0.036003,0.036003 0.056,0.056999"/>
 </g>
</svg>