<svg width="26.000000000000004" height="26.000000000000004" xmlns="http://www.w3.org/2000/svg">

 <g>
  <title>background</title>
  <rect fill="none" id="canvas_background" height="402" width="582" y="-1" x="-1"/>
 </g>
 <g>
  <title>Layer 1</title>
  <path id="svg_2" fill="#ffffff" d="m24.25,12.25l-22.5,0c-0.41406,0 -0.75,0.33594 -0.75,0.75s0.33594,0.75 0.75,0.75l22.5,0c0.414061,0 0.75,-0.33594 0.75,-0.75s-0.335939,-0.75 -0.75,-0.75z"/>
  <path id="svg_3" fill="#ffffff" d="m1.75,7.75l22.5,0c0.414061,0 0.75,-0.33594 0.75,-0.75s-0.335939,-0.75 -0.75,-0.75l-22.5,0c-0.41406,0 -0.75,0.33594 -0.75,0.75s0.33594,0.75 0.75,0.75z"/>
  <path id="svg_4" fill="#ffffff" d="m24.25,18.25l-22.5,0c-0.41406,0 -0.75,0.335939 -0.75,0.75s0.33594,0.75 0.75,0.75l22.5,0c0.414061,0 0.75,-0.335939 0.75,-0.75s-0.335939,-0.75 -0.75,-0.75z"/>
 </g>
</svg>